<svg xmlns="http://www.w3.org/2000/svg" viewBox="0 0 173.29 50.98"><defs><style>.cls-1{fill:#f37a88;}.cls-2{fill:#fff;}</style></defs><title>Asset 1</title><g id="Layer_2" data-name="Layer 2"><g id="Layer_1-2" data-name="Layer 1"><path class="cls-1" d="M131.84,20.85s-2.07,11.76-4.35,18.46c-5.18,15.19-8.56,9.34-9.92,11.67l-4.82-21.62S125.87,19.39,131.84,20.85Z"/><path class="cls-1" d="M120.35,6.14s11.26-4,18.21-5.3c15.77-3,12.34,2.85,15,2.89L137.15,18.57S122,12.05,120.35,6.14Z"/><path class="cls-1" d="M96.93,5.05a16.76,16.76,0,0,0,8-1.25,15.16,15.16,0,0,1,11.58-1c4.92,1.49,13.91,8.82,18.76,11.6,1.75,1,25.8,10.36,30.16,11.6s7.83,1.91,7.83,1.91a3,3,0,0,1-2.88,1.45c-2.19,0-20.77-5-24-5a34.69,34.69,0,0,0-8.77.91s-24.48,18.38-31.84.45c-4.29-10.44-5.15-19.16-7.2-20s-2.07-.67-2.07-.67"/><ellipse class="cls-2" cx="110.21" cy="6.97" rx="1.57" ry="1.77" transform="translate(82.54 113.87) rotate(-79.11)"/><path class="cls-2" d="M117.38,32.84a29.05,29.05,0,0,1,5.23-2,28.75,28.75,0,0,1,3.52,0s-2.71,12.48-3.89,13.8a2.77,2.77,0,0,1-2.32.79Z"/><path class="cls-2" d="M127.94,17.16,144.69,5.81S131.72,7,124.9,9.29s-2.6,4.05-2.6,4.05Z"/><path class="cls-1" d="M2.39,6.32A4.42,4.42,0,0,0,2,4.2,1.66,1.66,0,0,0,.42,3.52H0V2.79H11.54q2.39,0,2.39,2.25V7.31H13.2a3.23,3.23,0,0,0-.88-2.51A3.8,3.8,0,0,0,9.69,4H5.56v7.27h6.26v1.21H5.56v8.85H2.39Z"/><path class="cls-1" d="M15.59,20.6a3.42,3.42,0,0,1-1.26-2.85,3.31,3.31,0,0,1,1.78-3.12,12.19,12.19,0,0,1,5.63-1h.59a6.68,6.68,0,0,0-.7-3.58,2.36,2.36,0,0,0-2.08-1,3.11,3.11,0,0,0-1.88.53,3.14,3.14,0,0,0-1,1.94H15.19a8.38,8.38,0,0,1,.13-1.59,2.23,2.23,0,0,1,.58-1.11,3.07,3.07,0,0,1,1.61-.75,12.76,12.76,0,0,1,2.6-.24,5.51,5.51,0,0,1,4,1.38q1.42,1.38,1.42,4.52v7.58h-2l-1-1.26h-.14A3.47,3.47,0,0,1,21,21.15a5.06,5.06,0,0,1-2.22.45A5.05,5.05,0,0,1,15.59,20.6Zm5.73-.87a4.22,4.22,0,0,0,1-1.25V14.86h-.59q-4.07,0-4.07,2.89a2.61,2.61,0,0,0,.6,1.85,2,2,0,0,0,1.56.65A2.23,2.23,0,0,0,21.32,19.73Z"/><path class="cls-1" d="M31.2,20.69A5.71,5.71,0,0,1,29,18.22a8.14,8.14,0,0,1-.73-3.5,8.14,8.14,0,0,1,.73-3.5A5.72,5.72,0,0,1,31.2,8.75a6.6,6.6,0,0,1,3.57-.91q3.26,0,4.24,1A2.12,2.12,0,0,1,39.6,10a20.31,20.31,0,0,1,.11,2.6H39A3.83,3.83,0,0,0,37.88,10,3.69,3.69,0,0,0,35.27,9a3.05,3.05,0,0,0-2.71,1.5,7.66,7.66,0,0,0-1,4.17,7.82,7.82,0,0,0,.94,4.18,3.09,3.09,0,0,0,2.8,1.49,4.29,4.29,0,0,0,2.3-.58,6.19,6.19,0,0,0,1.74-1.73l.76.56A6.43,6.43,0,0,1,38,20.82a6.11,6.11,0,0,1-3.24.79A6.6,6.6,0,0,1,31.2,20.69Z"/><path class="cls-1" d="M44.33,20.62a3.93,3.93,0,0,1-1-2.92V9.33h-1.8V8.12h1.8V5.59l1.4-1.68h1.8V8.12h3.2V9.33h-3.2v8.45a3.72,3.72,0,0,0,.41,2,1.4,1.4,0,0,0,1.25.6,3.83,3.83,0,0,0,2.16-.67l.36.7a5.54,5.54,0,0,1-3.59,1.18A3.81,3.81,0,0,1,44.33,20.62Z"/><path class="cls-1" d="M54.85,20.69a6.09,6.09,0,0,1-2.25-2.47,7.65,7.65,0,0,1-.79-3.5,7.65,7.65,0,0,1,.79-3.5,6.1,6.1,0,0,1,2.25-2.47,6.39,6.39,0,0,1,3.45-.91,6.46,6.46,0,0,1,3.47.91A6.07,6.07,0,0,1,64,11.22a7.66,7.66,0,0,1,.79,3.5,7.66,7.66,0,0,1-.79,3.5,6.06,6.06,0,0,1-2.26,2.47,6.45,6.45,0,0,1-3.47.91A6.38,6.38,0,0,1,54.85,20.69Zm5.8-1.88a8.56,8.56,0,0,0,.86-4.09,8.56,8.56,0,0,0-.86-4.09A2.6,2.6,0,0,0,58.3,9,2.57,2.57,0,0,0,56,10.64a8.69,8.69,0,0,0-.84,4.09A8.69,8.69,0,0,0,56,18.81a2.57,2.57,0,0,0,2.33,1.59A2.6,2.6,0,0,0,60.65,18.81Z"/><path class="cls-1" d="M68.19,11.66a4.56,4.56,0,0,0-.38-2.12,1.62,1.62,0,0,0-1.56-.69H66V8.12h2.56a3.55,3.55,0,0,1,1.53.27,1.76,1.76,0,0,1,.83.86,5.42,5.42,0,0,1,1.52-1,4.86,4.86,0,0,1,2-.41,3,3,0,0,1,1.85.51A2.13,2.13,0,0,1,77,9.1a3.59,3.59,0,0,0,.29.51l-1.32,1a2.41,2.41,0,0,0-.84-.7,2.56,2.56,0,0,0-1.21-.28,3.74,3.74,0,0,0-1.52.29,2.68,2.68,0,0,0-1.07.8,10,10,0,0,1,.08,1.12v9.49h-3.2Z"/><path class="cls-1" d="M80.15,26a4.37,4.37,0,0,0,2.4-.6,4.4,4.4,0,0,0,1.56-2.2l.56-1.54-4.83-11A3.33,3.33,0,0,0,77,8.4V7.84h2.44a3.87,3.87,0,0,1,2.15.59A3.74,3.74,0,0,1,83,10.09l3.23,7.36L89.7,8.12h1.46l-5.59,15a6.84,6.84,0,0,1-1.82,3,4,4,0,0,1-2.58.8h-1Z"/><path class="cls-1" d="M3.36,29.28a5.59,5.59,0,0,0-1.12-2,2.48,2.48,0,0,0-1.52-.67V26.1l1-.05a6,6,0,0,1,2.8.62,4.52,4.52,0,0,1,1.94,2.6l3.43,9.19,2.46-7.13-.79-2.06a5.36,5.36,0,0,0-1.15-2,2.62,2.62,0,0,0-1.56-.68V26.1l.91-.05a6,6,0,0,1,2.79.63,4.55,4.55,0,0,1,2,2.59l3.55,9.47,4.34-12.43h1.17l-5.94,17h-.81L13,33.06,9.42,43.28H8.61Z"/><path class="cls-1" d="M26.3,34.33a4,4,0,0,0-.36-1.92,1.49,1.49,0,0,0-1.42-.62h-.36v-.66h2.74a2.83,2.83,0,0,1,1.4.28,1.56,1.56,0,0,1,.68,1,7.23,7.23,0,0,1,.2,2v8.73H26.3Zm.13-5.15A1.92,1.92,0,0,1,26,27.88a1.25,1.25,0,0,1,.37-.94,1.28,1.28,0,0,1,.93-.36,1.61,1.61,0,0,1,1.26.52A1.84,1.84,0,0,1,29,28.39a1.28,1.28,0,0,1-.37,1,1.31,1.31,0,0,1-1,.36A1.55,1.55,0,0,1,26.43,29.18Z"/><path class="cls-1" d="M32.87,34.33a4,4,0,0,0-.36-1.92,1.5,1.5,0,0,0-1.42-.62h-.36v-.66h2.44a3.38,3.38,0,0,1,1.38.23,1.55,1.55,0,0,1,.75.74,5.28,5.28,0,0,1,3.6-1.22A4.91,4.91,0,0,1,42.3,32a4.55,4.55,0,0,1,1.2,3.54v7.56H40.64V35.49a3.89,3.89,0,0,0-.71-2.58,2.33,2.33,0,0,0-1.85-.83,3.39,3.39,0,0,0-2.33.91v10H32.87Z"/><path class="cls-1" d="M47.37,41.56a7.26,7.26,0,0,1-1.31-4.47,7.16,7.16,0,0,1,1.33-4.48,4.58,4.58,0,0,1,3.87-1.74,5.82,5.82,0,0,1,2.87.76V29.5a4,4,0,0,0-.36-1.92A1.5,1.5,0,0,0,52.36,27H52v-.66h2.74a2.83,2.83,0,0,1,1.39.28,1.56,1.56,0,0,1,.69,1,7.22,7.22,0,0,1,.2,2V43.06h-1.8l-.89-1.14h-.13a3.5,3.5,0,0,1-1.19,1,4.08,4.08,0,0,1-1.93.41A4.36,4.36,0,0,1,47.37,41.56Zm5.76.22a4.86,4.86,0,0,0,1-1.15V32.73A4.63,4.63,0,0,0,51.88,32a2.22,2.22,0,0,0-2.13,1.38,8.81,8.81,0,0,0-.66,3.74,9.13,9.13,0,0,0,.64,3.73,2.08,2.08,0,0,0,2,1.4A2.2,2.2,0,0,0,53.13,41.77Z"/><path class="cls-1" d="M62.43,42.49a5.5,5.5,0,0,1-2-2.23,7.38,7.38,0,0,1,0-6.32,5.51,5.51,0,0,1,2-2.23,5.77,5.77,0,0,1,3.12-.82,5.84,5.84,0,0,1,3.13.82,5.49,5.49,0,0,1,2,2.23,7.38,7.38,0,0,1,0,6.32,5.48,5.48,0,0,1-2,2.23,5.83,5.83,0,0,1-3.13.83A5.76,5.76,0,0,1,62.43,42.49Zm5.24-1.7a7.73,7.73,0,0,0,.77-3.69,7.74,7.74,0,0,0-.77-3.69A2.35,2.35,0,0,0,65.55,32a2.33,2.33,0,0,0-2.11,1.43,7.86,7.86,0,0,0-.76,3.69,7.85,7.85,0,0,0,.76,3.69,2.33,2.33,0,0,0,2.11,1.43A2.35,2.35,0,0,0,67.67,40.78Z"/><path class="cls-1" d="M74.39,34a7.62,7.62,0,0,0-1.18-2,1.91,1.91,0,0,0-1.31-.63v-.48L73,30.88a4.66,4.66,0,0,1,2.61.68A5.53,5.53,0,0,1,77.4,34l2.16,5,1.9-4.64a11.31,11.31,0,0,0-1.32-2.36,1.76,1.76,0,0,0-1.24-.68v-.48l.91-.05a5,5,0,0,1,2.72.7A5.23,5.23,0,0,1,84.41,34l2.26,5.2,3.2-8.12h1.29L86.39,43.31H85.5l-3.25-7.44-3,7.44h-.89Z"/></g></g></svg>