<?xml version="1.0" encoding="UTF-8"?>
<svg width="737px" height="389px" viewBox="0 0 737 389" version="1.1" xmlns="http://www.w3.org/2000/svg" xmlns:xlink="http://www.w3.org/1999/xlink">
    <!-- Generator: sketchtool 44.1 (41455) - http://www.bohemiancoding.com/sketch -->
    <title>138B0E27-58DE-4589-8C26-C9A5486C976C</title>
    <desc>Created with sketchtool.</desc>
    <defs></defs>
    <g id="Page-1" stroke="none" stroke-width="1" fill="none" fill-rule="evenodd">
        <g id="Desktop" transform="translate(-123.000000, -86.000000)">
            <g id="Map" transform="translate(124.000000, 87.000000)">
                <g>
                    <path d="M374.044698,165.30123 C367.819052,162.168952 365.219398,154.334959 355.765161,156.237624 C349.348146,157.529049 334.766778,157.907157 330.067841,162.635464 C323.082677,169.664287 306.291813,198.558527 309.933858,209.552953 C311.41747,214.031607 314.661474,219.067283 316.556879,222.881785 C318.957154,227.71234 334.978262,237.584782 341.459436,235.410887 C345.680709,233.995002 353.092559,229.267855 357.884527,231.678814 C360.501677,232.995568 361.620607,236.771129 363.447865,238.609807 C367.928792,243.118741 365.135094,254.001305 367.951519,259.669362 C368.5897,260.953701 370.263097,265.946951 369.541044,267.400085 C367.253618,272.003529 364.059953,276.610918 365.30231,282.86153 C366.690827,289.847507 372.563422,295.511036 373.779777,302.854778 C374.46133,306.969655 376.537704,322.636149 380.137876,324.447486 C398.397298,333.63426 413.907017,309.660798 423.31997,300.189012 C426.494287,296.994855 421.55095,286.421685 423.584891,282.328377 C426.219735,277.025751 431.643856,273.19524 433.386962,267.933238 C433.849677,266.536415 428.523347,260.810977 427.558704,258.869632 C424.961386,253.642529 440.900079,238.609807 442.39427,238.609807 C446.749149,238.34323 453.037238,216.263793 451.136657,214.351333 C447.181105,210.371058 435.374876,216.884826 430.737754,212.218719 C421.127391,202.548289 416.834089,176.102292 409.014246,168.233573 C407.48383,166.693592 395.069959,166.333646 392.589155,165.834384 C387.692531,165.834384 378.393014,167.488978 374.044698,165.30123 Z" id="Path" stroke="#979797" stroke-width="1.1"></path>
                    <path d="M447.970984,271.926624 C436.797654,275.793182 434.856077,299.237163 442.302511,306.967732 C443.110937,307.807006 445.839718,296.948484 446.425037,295.733178 C449.643476,289.050685 455.137575,277.506661 447.970984,271.926624 L447.970984,271.926624 Z" id="Path" stroke="#979797" stroke-width="1.1"></path>
                    <path d="M369.563019,20.279932 C369.116799,22.0721054 367.201387,28.6537743 367.995455,30.2483968 C369.07702,32.4203635 374.309324,30.1391274 376.094539,31.0353808 C387.273192,36.6475397 404.935967,19.492948 388.112534,19.492948 L380.535972,19.492948 C376.735525,19.492948 373.427973,19.7255403 369.563019,20.279932 L369.563019,20.279932 Z" id="Path" stroke="#979797" stroke-width="1.1"></path>
                    <path d="M472.521194,37.0484912 C469.87527,38.8358886 467.282941,40.4502232 465.265343,42.4946417 C463.846278,43.9325705 456.167475,51.5204394 457.472022,52.8423276 C461.415402,56.8381277 476.951001,43.9967144 480.045779,40.8607965 C481.97086,38.9101261 486.61337,39.3797458 488.376571,37.5931062 C488.48835,37.4798414 488.48835,34.9832958 488.376571,34.870031 C485.996023,32.4578388 473.901275,36.5332813 472.521194,37.0484912 L472.521194,37.0484912 Z" id="Path" stroke="#979797" stroke-width="1.1"></path>
                    <path d="M303.36919,71.14926 L311.707744,71.14926 C327.0257,71.14926 317.535989,79.1659186 313.531803,83.3229492 C311.935426,84.9802612 290.916601,82.454019 296.854695,76.2892621 C298.554825,74.5242357 300.325346,73.3798698 303.36919,71.14926 L303.36919,71.14926 Z" id="Path" stroke="#979797" stroke-width="1.1"></path>
                    <path d="M339.427653,91.1453686 C329.683564,87.9798014 338.093823,100.616263 338.093823,104.925012 C338.093823,106.742005 334.559653,112.66028 335.959694,114.024776 C336.221547,114.27998 351.648182,109.035482 347.6974,105.185005 C344.518757,102.087063 341.416921,95.7499332 339.427653,91.1453686 L339.427653,91.1453686 Z" id="Path" stroke="#979797" stroke-width="1.1"></path>
                    <path d="M329.479257,107.153871 C327.786285,101.486028 324.34452,110.039033 325.097806,113.40157 C326.065425,117.720848 331.287227,117.241941 329.479257,107.153871 L329.479257,107.153871 Z" id="Path" stroke="#979797" stroke-width="1.1"></path>
                    <path d="M338.792266,121.812521 C338.004403,124.964006 340.155127,134.253565 338.261352,136.147359 C332.802281,141.606484 327.798331,129.951612 324.457573,143.314777 C321.190696,156.382415 336.995475,157.853664 344.101412,150.747656 C349.054461,145.794557 341.714469,138.801234 353.657875,134.820059 C360.357461,132.586841 364.336189,138.910452 369.585312,140.660178 C375.220729,142.538669 377.826532,138.009593 381.796347,139.332878 C388.577285,141.593213 394.754553,147.719467 401.971101,144.111157 C405.385847,142.403767 402.404242,134.675677 405.95296,133.492759 C408.800742,132.543489 417.93222,133.690855 419.225825,131.10362 C422.505493,124.544216 404.089149,122.349052 407.811161,118.627002 C412.997235,113.440877 422.694365,108.504332 426.393171,101.106646 C429.517553,94.8578185 427.847387,87.3259253 429.578659,80.4007696 C430.161101,78.0709774 431.814349,71.5991983 430.640488,69.2514518 C428.65253,65.2754962 416.706526,62.6487721 412.323935,61.5531133 C398.51559,58.1009925 389.483511,52.9312135 374.894458,60.2258136 C371.741738,61.8021891 369.042413,73.7802503 366.665282,76.9497903 C361.60115,83.7020338 352.796422,83.1906653 358.170648,93.9392269 C358.712411,95.0227625 357.876496,97.6269711 358.701563,98.452046 C360.999353,100.749859 366.289355,95.6869756 366.930739,96.3283664 C369.568854,98.9665079 363.300097,101.372105 371.178056,101.372105 C373.476801,101.372105 377.881425,102.101547 379.141774,100.841186 C380.00804,99.9749106 380.261547,95.1506379 380.999975,93.673767 C381.497049,92.6796092 385.509505,91.2781386 384.45092,89.1609479 C383.014898,86.2888755 380.840116,84.2257318 381.796347,80.4007696 C382.271061,78.5018952 389.533865,70.8834687 392.414639,73.7642709 C395.822086,77.1717524 386.489676,81.4733588 387.901865,85.7099685 C389.190399,89.5756114 397.857257,87.6971987 396.661955,93.673767 C394.147578,106.245776 370.430328,105.727872 362.683422,109.601364 C361.321378,110.282393 356.177777,109.205116 355.516076,109.866824 C354.047533,111.335381 355.489642,115.75981 354.454246,117.830622 C354.260955,118.217209 341.473486,121.678459 338.792266,121.812521 L338.792266,121.812521 Z" id="Path" stroke="#979797" stroke-width="1.1"></path>
                    <path d="M428.491799,108.896479 C426.16169,113.577652 416.78719,113.905899 414.753193,117.992185 C414.008138,119.488994 419.642288,122.275974 420.373532,123.010505 C423.735071,126.38716 432.839849,137.82211 430.365245,145.279303 C429.089077,149.125022 397.991529,145.165256 402.263551,153.747719 C405.585165,160.420817 416.902018,154.651626 420.685773,158.452394 C423.45413,161.233199 417.29249,174.489845 420.373532,177.584741 C431.840484,189.103255 426.538111,214.799163 449.411949,210.203825 C458.75174,208.327467 461.932828,204.526838 467.834171,198.598959 C471.96775,194.446793 468.800614,179.058369 481.260536,183.230352 C499.876105,189.463443 497.187545,198.604413 504.678615,213.65392 C506.436981,217.186465 505.832796,223.10799 508.359528,225.551148 C510.886261,227.994306 515.568504,208.399397 517.168257,205.185504 C521.184788,197.116322 528.416509,194.513965 534.653756,188.248672 C535.085369,187.815119 536.282883,188.630545 536.527202,188.875962 C541.689373,194.061345 540.394559,203.42464 545.269952,208.321955 C551.047603,214.125585 560.690443,214.088788 566.190102,219.613176 C568.27772,219.926821 570.146968,223.271458 572.434923,222.122336 C572.560973,222.059028 572.434923,219.940356 572.434923,219.926821 C572.434923,213.709006 567.095373,203.994112 569.936995,198.285314 C571.619458,194.905257 576.831053,195.027737 579.928708,192.953348 C588.665789,187.102437 595.807777,180.13933 602.410064,173.507356 C606.949354,168.947655 601.656705,154.559198 598.35093,151.238558 C598.236049,151.12316 597.220931,149.237188 597.726448,148.729398 C602.7156,143.717813 612.483167,157.116059 614.587465,155.002299 C616.842546,152.737077 612.9757,147.613224 616.460911,145.279303 C621.791607,141.709526 629.498312,140.96534 633.94641,136.497242 C636.496171,133.936016 637.338026,127.266328 640.815713,125.519665 C642.733987,124.556215 646.945517,124.066975 648.621739,122.383215 C653.542937,117.43989 641.274133,112.012957 639.566749,108.582834 C636.34566,102.111689 643.722721,97.8540533 648.309498,94.782452 C654.765285,90.4592417 661.175322,94.0606935 668.292925,92.2732917 C670.835715,91.6347358 686.736819,85.7520547 687.339629,87.5686162 C688.836256,92.0786857 680.976276,93.3819371 678.284639,95.409742 C671.988033,100.153431 671.027707,109.761687 676.723434,115.483024 C678.418456,117.185668 688.207481,101.4843 689.213076,99.8007725 C690.711558,97.2920722 693.272209,94.3389567 693.272209,91.6460016 C693.272209,91.1152631 693.347371,90.6673166 693.896691,90.3914215 C699.620679,87.5165587 732.119315,73.0111483 734.175787,70.9454293 C736.344954,68.7665084 730.245786,61.72001 728.555448,63.4179485 C725.044833,66.9443483 707.544859,65.4415004 702.951682,64.6725286 C683.215506,61.3683754 664.222344,55.7627097 644.562606,51.8130822 C626.856221,48.255882 609.636225,45.2265364 591.481627,45.2265364 C589.657338,45.2265364 574.452402,46.7704766 573.683887,45.2265364 C572.327282,42.5011259 582.104793,40.8065678 580.55319,36.1308304 C579.396586,32.6454157 563.435354,29.2120827 559.63304,30.4852198 C542.504029,36.2205637 525.25178,47.1084067 506.23982,47.1084067 C501.028544,47.1084067 492.47984,44.139514 488.442081,46.1674715 C482.030085,49.3878851 478.490209,54.4134506 470.3321,57.1450478 C456.946031,61.6271339 445.235996,58.2033278 435.673343,67.808979 C439.440592,82.9457319 434.020771,97.7888123 428.491799,108.896479 Z" id="Path" stroke="#979797" stroke-width="1.1"></path>
                    <path d="M552.526177,16.9404522 C549.83769,16.0806348 546.565228,8.11339704 542.531794,10.0483237 C540.111498,11.2093929 546.261463,24.2027816 548.465959,24.7315541 C557.512533,26.9014741 561.419508,23.0352037 552.526177,16.9404522 L552.526177,16.9404522 Z" id="Path" stroke="#979797" stroke-width="1.1"></path>
                    <path d="M650.956197,135.475988 C643.4285,138.01177 641.288092,147.230513 638.320395,153.228707 C635.474189,158.981351 628.360187,160.753115 623.527261,163.195146 C621.860747,164.03722 623.156898,168.458401 624.451832,169.112719 C628.851429,171.335793 632.006114,165.139887 635.238492,163.506597 C649.823278,156.137045 648.220072,151.14475 650.956197,135.475988 L650.956197,135.475988 Z" id="Path" stroke="#979797" stroke-width="1.1"></path>
                    <path d="M558.83455,225.439118 C553.037895,216.768869 552.231102,235.791304 552.859331,238.923515 C554.260622,245.910036 559.185268,260.021515 567.640135,262.12922 C570.317294,262.796606 574.721436,262.837483 577.07469,264.010763 C578.598944,264.770722 585.796746,269.111505 587.138216,267.773851 C591.316762,263.607191 571.253609,255.697516 569.527046,253.975864 C559.321773,243.799621 575.679225,236.986891 558.83455,225.439118 L558.83455,225.439118 Z" id="Path" stroke="#979797" stroke-width="1.1"></path>
                    <path d="M594.016773,227.092844 C589.032347,227.092844 586.827761,233.447472 584.854493,237.317946 C583.747525,239.489214 579.941546,240.896801 578.53568,242.275572 C575.958529,244.803054 583.084987,252.407602 584.538553,253.120378 C586.747929,254.203775 589.147995,251.880971 591.173307,251.880971 C592.793364,251.880971 600.098585,253.04296 600.967468,252.190823 C602.89512,250.300322 596.544299,241.147576 596.544299,238.557353 C596.544299,232.779421 597.405373,233.324015 594.016773,227.092844 L594.016773,227.092844 Z" id="Path" stroke="#979797" stroke-width="1.1"></path>
                    <path d="M643.194444,251.111126 C641.029752,249.49597 624.677637,244.000607 629.442528,251.111126 C632.581598,255.795476 646.800292,260.211703 651.63312,262.615669 C652.885363,263.238565 659.676753,270.160149 661.009426,268.834341 C665.309044,264.556871 647.016015,252.005688 643.194444,251.111126 L643.194444,251.111126 Z" id="Path" stroke="#979797" stroke-width="1.1"></path>
                    <path d="M617.702905,274.863059 C611.967431,289.296243 591.212589,286.003211 585.10358,298.301751 C583.6722,301.183377 583.861701,305.912396 583.861701,309.239807 C583.861701,312.207435 583.569553,315.232935 584.482641,317.990252 C592.813008,343.146056 611.730061,311.721332 625.464649,315.177609 C635.41694,317.682079 647.812591,340.338098 659.926792,334.241078 C665.890945,331.239349 664.082514,322.82141 665.515248,317.052704 C666.324125,313.795873 672.814985,307.05964 671.103704,303.614521 C668.294693,297.959474 658.941657,296.318494 655.890685,290.176337 C651.57071,281.479445 649.968758,273.288903 640.677667,268.612741 C635.310228,265.911334 622.77098,273.362625 617.702905,274.863059 L617.702905,274.863059 Z" id="Path" stroke="#979797" stroke-width="1.1"></path>
                    <path d="M656.794369,342.101237 C643.903698,342.101237 652.486953,359.64489 656.794369,342.101237 L656.794369,342.101237 Z" id="Path"></path>
                    <path d="M721.987292,338.902408 C719.405807,338.056404 717.798748,330.906957 714.317288,332.618373 C712.493193,333.515062 690.144115,367.826517 702.173115,363.095944 C708.267797,360.699125 708.259851,352.508216 713.678121,348.956865 C717.411076,346.510137 719.474264,342.855543 721.987292,338.902408 L721.987292,338.902408 Z" id="Path" stroke="#979797" stroke-width="1.1"></path>
                    <path d="M725.669558,308.992534 C722.484261,308.992534 717.807638,308.35148 719.383887,313.065488 C719.751003,314.163403 727.016027,322.688859 728.183827,321.524698 C730.361583,319.353729 726.084964,309.820756 725.669558,308.992534 L725.669558,308.992534 Z" id="Path" stroke="#979797" stroke-width="1.1"></path>
                    <path d="M202.158412,214.427532 C198.563003,214.427532 190.963549,214.171626 189.421549,217.283829 C188.325313,219.496349 189.355739,227.82333 188.006342,229.185067 C183.037336,234.199513 179.357174,242.516513 177.156421,249.179147 C176.276887,251.841879 184.559772,279.500576 186.119399,281.074465 C188.610192,283.588036 193.420279,284.633713 196.025848,287.263109 C199.497633,290.766642 198.066552,308.219837 196.497584,312.969783 C194.491346,319.043536 197.372866,327.864944 194.610641,333.439913 C186.6318,349.543522 187.219141,378.981493 202.630148,386.75746 C206.920491,388.922248 204.517091,370.624198 204.517091,368.191528 C204.517091,357.309731 209.380129,349.002534 215.838747,342.484854 C221.369464,336.903561 234.699912,333.932639 238.48206,326.29917 C241.200367,320.812839 246.010825,304.896121 249.33198,301.544595 C253.650307,297.186779 259.9389,296.553273 263.484051,292.975703 C266.019873,290.416692 262.060554,281.55888 264.427522,279.170267 C267.673558,275.894547 277.543185,267.557507 273.3905,259.176187 C269.170484,250.658974 260.179235,256.793249 254.049337,250.607296 C243.411189,239.871866 232.629193,224.803724 219.612632,218.235928 C214.490244,215.651312 208.125198,217.164509 202.158412,214.427532 L202.158412,214.427532 Z" id="Path" stroke="#979797" stroke-width="1.1"></path>
                    <path d="M227.954831,2.79890516 C227.954831,15.071395 200.40388,25.2414114 204.814167,34.0990947 C207.423954,39.3406267 217.318627,32.4288034 220.870954,35.9960758 C226.967828,42.1186001 226.755857,53.761869 231.732899,58.75985 C233.900314,60.9363837 239.658576,57.6050629 241.650326,61.6053218 C246.271598,70.8867515 233.788223,76.9481614 251.095495,94.3282472 C252.732434,95.9720735 256.35072,87.5675407 256.762596,86.7403225 C259.066717,82.1126938 264.810435,74.637304 269.041316,72.5129636 C277.38075,68.3257039 293.208349,63.4201057 298.793597,57.8113594 C305.48751,51.089285 300.213981,34.0918476 303.98844,26.5111699 C305.880974,22.7101786 318.752524,14.4299803 315.794901,8.4898487 C312.949154,2.77440995 298.882543,6.73375887 292.654238,5.17013163 C273.576965,0.380748411 246.948416,-2.40295674 227.954831,2.79890516 L227.954831,2.79890516 Z" id="Path" stroke="#979797" stroke-width="1.1"></path>
                    <path d="M140.590659,9.01176656 C151.587372,6.0156357 169.417446,12.3455595 178.931726,7.5931345 C181.299621,6.41036025 188.30724,4.28299302 190.765388,4.28299302 C194.560933,4.28299302 203.253218,-0.265139399 206.85917,3.33723832 C208.056393,4.53327544 205.119509,6.81311113 204.965784,7.12025714 C201.215166,14.6140573 194.50921,22.3381488 190.765388,29.8183701 C189.083214,33.1793848 181.771805,32.272817 181.771805,35.020021 C181.771805,35.9737243 181.856956,37.0816646 182.245151,37.8572851 C187.812633,48.9812126 202.515885,53.852032 211.119288,62.4469075 C211.737436,63.0644429 210.891817,65.7386638 210.645942,66.2299263 C205.802409,75.9073911 209.444443,88.4189336 213.012674,95.5483222 C215.63774,100.793251 225.237147,103.97766 229.579802,108.316011 C231.868888,110.602828 228.731492,116.926089 230.999841,119.19219 C231.949785,120.141192 237.674405,123.825632 236.206653,126.758228 C235.758742,127.65316 234.815649,127.703982 233.83992,127.703982 C222.272522,127.703982 226.779579,124.000596 223.426297,117.30068 C222.500703,115.451327 209.696108,117.776696 208.752556,118.719313 C204.453079,123.014528 220.35207,125.807428 217.272793,131.959878 C214.19852,138.102329 203.356784,128.081528 199.285626,136.215775 C195.281961,144.215167 191.547132,155.295655 185.08523,161.751152 C183.515981,163.318846 179.716349,161.440184 177.985033,163.169784 C174.372919,166.778318 182.14499,178.874799 178.458379,182.557755 C177.448964,183.56617 175.900075,180.947741 175.6183,180.666246 C170.738616,175.791397 172.20829,173.524841 164.731331,169.790067 C163.758009,169.303888 158.491347,173.444257 156.68444,174.045963 C147.602525,177.070267 141.064006,173.997603 141.064006,184.922142 C141.064006,189.075854 141.957277,197.190269 145.797471,199.108463 C152.430663,202.421772 152.404324,188.540876 159.997866,191.069548 C166.674855,193.293005 161.388208,201.886392 163.784638,206.6745 C166.313428,211.727067 170.469943,205.787142 173.724914,209.038887 C176.078551,211.390191 170.208276,214.983281 172.778221,217.550679 C174.922568,219.6929 188.361036,222.789913 186.031923,225.116717 C181.212736,229.931128 166.079454,215.859686 164.731331,215.186293 C161.880342,213.762211 130.920886,201.270207 130.650383,200.999972 C124.651259,195.006794 124.728655,183.735057 117.870027,176.883227 C117.604531,176.617994 113.814718,171.476969 113.136562,172.154453 C111.704981,173.584615 116.770468,181.917429 115.029948,185.395019 C114.697107,186.060042 99.106116,176.277033 97.5161275,173.100208 C90.481623,159.045144 87.808595,137.394043 79.0556139,128.649737 C76.4567294,126.053428 84.2158656,121.98294 81.8956929,119.665067 C80.0724172,117.843599 74.6005859,119.470351 72.9021094,117.773558 C60.2893473,105.173297 59.3816821,94.8906103 41.1878937,90.3466713 C29.8345234,87.5111419 18.4123877,103.08695 15.6271825,101.695728 C12.1963966,99.982035 2.81562484,90.2531577 1.42678747,86.0907752 C-0.0245880402,81.7409641 7.45978339,81.5941006 5.686906,78.0518601 C3.96469783,74.6108577 -1.66338141,67.2024877 0.480094469,62.9197848 C1.34388057,61.1939249 1.54242957,53.8773514 3.32017348,52.9893604 C20.8331944,44.2415288 44.6033296,63.2489655 62.9618328,58.6638887 C65.304895,58.0787037 87.6810047,34.9149714 91.362623,31.2370022 C93.6945127,28.9074236 105.542814,33.0052462 107.929751,33.6013889 C119.245522,36.4275279 137.725442,43.0840491 146.744164,34.0742663 C150.348994,30.4730087 140.590659,13.3177054 140.590659,9.01176656 Z M164.695366,76.9971444 C161.322579,78.12185 158.443089,84.1903473 156.7216,85.9125152 C154.077191,88.5579662 146.542238,86.7112897 144.057382,89.1971254 C143.946827,89.307724 144.057382,89.5099455 144.057382,89.6663555 C144.057382,95.0011133 165.321014,97.3307012 169.854862,101.866337 C174.029672,106.042793 174.320353,116.769174 180.173854,119.697078 C183.551218,121.386426 181.255604,110.963505 182.050034,109.374017 C183.370487,106.73207 188.637706,98.175644 187.678575,95.297116 C186.989084,93.2278261 187.626452,94.8018143 186.740485,94.3586559 C177.293458,89.6332799 173.034781,83.4859138 164.695366,76.9971444 Z" id="Path" stroke="#979797" stroke-width="1.1"></path>
                    <path d="M173.199108,189.881126 C180.683012,191.745287 179.061315,195.72198 183.197442,199.84304 C183.651217,200.295163 198.746193,201.902871 198.90911,201.740547 C201.971074,198.689737 191.552352,194.670657 190.81522,193.201764 C189.91858,191.415015 190.84486,181.11992 189.386887,180.393589 C187.425839,179.416637 186.75221,187.28806 186.054109,187.983619 C185.094959,188.939274 174.555784,189.512471 173.199108,189.881126 L173.199108,189.881126 Z" id="Path" stroke="#979797" stroke-width="1.1"></path>
                    <path d="M21.0286171,202.726659 C19.3830603,200.110678 9.57718983,188.846264 13.6177755,184.563987 C14.9304731,183.17277 16.1786837,186.296313 16.3968411,186.527519 C20.0920868,190.4438 24.7113156,197.708538 21.0286171,202.726659 L21.0286171,202.726659 Z" id="Path" stroke="#979797" stroke-width="1.1"></path>
                    <path d="M511.857668,228.295119 C511.564394,229.412386 512.329431,231.20113 513.377843,231.20113 C514.426255,231.20113 515.273868,227.955337 514.307345,227.574682 C513.340822,227.194026 512.150942,227.177853 511.857668,228.295119 Z" id="Path-2" stroke="#979797" stroke-width="1.1" transform="translate(513.262872, 229.270945) scale(1, -1) translate(-513.262872, -229.270945) "></path>
                </g>
            </g>
        </g>
    </g>
</svg>